<svg xmlns="http://www.w3.org/2000/svg" width="42.353" height="41.22" viewBox="0 0 42.353 41.22"><defs><style>.a{fill:#505050;}</style></defs><g transform="translate(0 -6.028)"><g transform="translate(0 6.028)"><g transform="translate(0 0)"><path class="a" d="M101.075,350.322a4.422,4.422,0,1,0,4.422,4.422A4.422,4.422,0,0,0,101.075,350.322Zm0,6.878a2.456,2.456,0,1,1,2.456-2.456A2.456,2.456,0,0,1,101.075,357.2Z" transform="translate(-87.564 -317.946)"/><path class="a" d="M299.606,350.322a4.422,4.422,0,1,0,4.422,4.422A4.422,4.422,0,0,0,299.606,350.322Zm0,6.878a2.456,2.456,0,1,1,2.456-2.456A2.456,2.456,0,0,1,299.606,357.2Z" transform="translate(-267.426 -317.946)"/><path class="a" d="M42.153,12.611a1.228,1.228,0,0,0-.786-.393L9.384,11.776,8.5,9.074A4.52,4.52,0,0,0,4.274,6.028H.983a.983.983,0,1,0,0,1.965H4.274a2.555,2.555,0,0,1,2.358,1.72l6.239,18.817-.491,1.13a4.716,4.716,0,0,0,.442,4.274A4.569,4.569,0,0,0,16.508,36H35.619a.983.983,0,0,0,0-1.965H16.507a2.506,2.506,0,0,1-2.063-1.179,2.7,2.7,0,0,1-.246-2.358l.393-.884,20.683-2.162a5.4,5.4,0,0,0,4.667-4.127L42.3,13.446A.835.835,0,0,0,42.153,12.611ZM38.026,22.879a3.341,3.341,0,0,1-3,2.6L14.591,27.6,10.022,13.741l30.116.442Z" transform="translate(0 -6.028)"/></g></g></g></svg>