<svg xmlns="http://www.w3.org/2000/svg" width="39.927" height="36.366" viewBox="0 0 39.927 36.366"><defs><style>.a{fill:#505050;stroke:#fff;stroke-width:0.4px;}</style></defs><path class="a" d="M36.335,31.84a10.685,10.685,0,0,0-15.477.009l-1.081,1.119-1.1-1.136A10.675,10.675,0,0,0,3.2,31.814a11.6,11.6,0,0,0,.017,16.019L18.955,64.12a1.1,1.1,0,0,0,1.592.009l15.77-16.261a11.632,11.632,0,0,0,.017-16.027ZM34.726,46.211,19.751,61.648,4.81,46.185A9.206,9.206,0,0,1,4.8,33.479a8.473,8.473,0,0,1,12.276.009l1.894,1.96a1.1,1.1,0,0,0,1.6,0l1.877-1.943A8.473,8.473,0,0,1,34.726,33.5a9.228,9.228,0,0,1,0,12.714Z" transform="translate(0.2 -28.301)"/></svg>