<svg xmlns="http://www.w3.org/2000/svg" width="47.813" height="70" viewBox="0 0 47.813 70"><defs><style>.a{fill:#fda92d;}</style></defs><path class="a" d="M26.274,18.914a5.692,5.692,0,0,0-3.443.474,3.635,3.635,0,0,0-4.351.414l-3.822,3.529v-.307a5.791,5.791,0,0,0-5.832-5.75,3.475,3.475,0,0,0-3.5,3.45V31.988L2.471,35.041A4.537,4.537,0,0,0,1.237,38.22a74.6,74.6,0,0,0,.9,11.977,1.1,1.1,0,0,0,.109.259l-1.9,5.28a4.514,4.514,0,0,0,1.766,5.329l.666.446A4.575,4.575,0,0,0,4.541,66.8L23.426,79.568a1.146,1.146,0,0,1,.508.95,3.475,3.475,0,0,0,3.5,3.451H44.383a3.492,3.492,0,0,0,2.732-1.3,3.423,3.423,0,0,0,.663-2.97l-1.7-6.21a26.976,26.976,0,0,1-.523-8.268c.961-12.019-7.211-20.7-9.283-22.211-3.813-2.771-6.656-5.661-7.8-7.928-1.72-3.4-.561-5.729.56-7.978.94-1.887,1.913-3.838.533-5.884a5.13,5.13,0,0,0-3.283-2.307Zm-17.449.659a3.475,3.475,0,0,1,3.5,3.45v2.461L7.659,29.791V20.723A1.14,1.14,0,0,1,8,19.91a1.173,1.173,0,0,1,.824-.337ZM3.57,38.189A2.265,2.265,0,0,1,4.186,36.6l3.078-3.3a.968.968,0,0,0,.08-.075l6.849-6.32a1.153,1.153,0,0,0,.18-.168L20.1,21.45a1.189,1.189,0,0,1,1.641,0l.08-.078a.981.981,0,0,0,.091.091l-.074.093a3.415,3.415,0,0,1-.079,4.761L17.174,30.66,10.715,36.4A2.219,2.219,0,0,0,10.1,38.03a5.814,5.814,0,0,0-4.738,3.764L3.9,45.854c-.234-2.827-.309-6.028-.331-7.665Zm8.855-.214,3.371-2.99a18.346,18.346,0,0,0,.111,2.99ZM2.535,56.52l5.03-13.955a3.51,3.51,0,0,1,3.32-2.29H20.894a1.191,1.191,0,0,1,.675.214l6.038,4.219a.87.87,0,0,1,.26,1.168c-.041.067-.095.133-.144.2l-1.894-1.336a5.845,5.845,0,0,0-3.382-1.072H13.267A5.827,5.827,0,0,0,7.776,47.5L3.578,59.27l-.152-.1a2.238,2.238,0,0,1-.891-2.649Zm24.4-30.414c-1.178,2.362-2.79,5.6-.553,10.02,1.788,3.534,6.1,7,8.506,8.749,1.549,1.124,9.224,9.152,8.342,20.18a29.268,29.268,0,0,0,.583,9.005l1.7,6.211a1.138,1.138,0,0,1-.223.973,1.174,1.174,0,0,1-.91.435H27.426a1.159,1.159,0,0,1-1.166-1.15,3.438,3.438,0,0,0-1.516-2.848L5.86,64.915a2.289,2.289,0,0,1-.88-2.666l5-13.985a3.5,3.5,0,0,1,3.29-2.3h9.179a3.506,3.506,0,0,1,2.028.643l5.385,3.8a.885.885,0,0,1,.245,1.179,3.48,3.48,0,0,1-2.224,1.59,3.522,3.522,0,0,1-2.7-.5l-2.333-1.535a3.5,3.5,0,0,0-1.941-.582H17.312a3.464,3.464,0,0,0-3.326,2.384c-.069.215-.167.482-.278.782-.84,2.289-2.8,7.644,1.647,9.4a1.18,1.18,0,0,0,1.183-.138,1.142,1.142,0,0,0,.443-1.09A1.155,1.155,0,0,0,16.223,61c-1.956-.774-1.544-3.154-.321-6.485.123-.336.233-.631.308-.871a1.144,1.144,0,0,1,1.1-.779H20.9a1.165,1.165,0,0,1,.643.193l2.333,1.537a5.886,5.886,0,0,0,4.51.826A5.814,5.814,0,0,0,32.1,52.767a3.178,3.178,0,0,0-.892-4.23l-1.594-1.131c.085-.115.177-.23.249-.345a3.142,3.142,0,0,0-.907-4.222l-6.036-4.225a3.56,3.56,0,0,0-2.028-.639H18.256a16.063,16.063,0,0,1,.173-5.353l4.97-4.66a5.691,5.691,0,0,0,1.031-6.728,2.719,2.719,0,0,1,3.19,1.277c.578.858.254,1.712-.684,3.6Zm0,0" transform="translate(-0.063 -13.968)"/><path class="a" d="M150.541,358.221a1.067,1.067,0,0,0-.676,2.025c2.459.824,8.844,3.782,8.844,7.513a1.066,1.066,0,0,0,2.131,0c0-6.032-9.879-9.4-10.3-9.538Zm0,0" transform="translate(-127.865 -307.885)"/><path class="a" d="M204.486,324.4a.993.993,0,1,0-1.581,1.2c1.515,1.986,4.035,4.362,7.437,4.362a.993.993,0,1,0,0-1.986C207.753,327.976,205.732,326.029,204.486,324.4Zm0,0" transform="translate(-172.422 -281.686)"/><path class="a" d="M215.226.548,213.67,2.181a1.633,1.633,0,1,0,2.364,2.25L217.591,2.8a1.633,1.633,0,1,0-2.364-2.25Zm0,0" transform="translate(-184.972 -0.001)"/><path class="a" d="M241.684,36.124a1.634,1.634,0,0,0-2.014-1.132l-2.123.6a1.635,1.635,0,1,0,.886,3.147l2.123-.6a1.632,1.632,0,0,0,1.128-2.017Zm0,0" transform="translate(-205.18 -28.248)"/><path class="a" d="M231.719,75.613a1.633,1.633,0,0,0-.883,3.145l2.123.6a1.634,1.634,0,1,0,.883-3.145Zm0,0" transform="translate(-199.363 -62.994)"/></svg>