<svg xmlns="http://www.w3.org/2000/svg" width="70" height="70" viewBox="0 0 70 70"><defs><style>.a{fill:#fda92d;}</style></defs><path class="a" d="M178.13,45.326a2.137,2.137,0,0,0,2.13-2.13V42.13a2.13,2.13,0,1,0-4.261,0V43.2A2.137,2.137,0,0,0,178.13,45.326Z" transform="translate(-143.13 -29.348)"/><path class="a" d="M178.13,308a2.137,2.137,0,0,0-2.13,2.13V311.2a2.13,2.13,0,1,0,4.261,0V310.13A2.137,2.137,0,0,0,178.13,308Z" transform="translate(-143.13 -253.977)"/><path class="a" d="M43.2,176H42.13a2.13,2.13,0,0,0,0,4.261H43.2a2.13,2.13,0,1,0,0-4.261Z" transform="translate(-29.348 -143.13)"/><path class="a" d="M311.2,176H310.13a2.13,2.13,0,0,0,0,4.261H311.2a2.13,2.13,0,1,0,0-4.261Z" transform="translate(-253.977 -143.13)"/><path class="a" d="M83.622,80.639a2.109,2.109,0,0,0-2.982,2.982l.746.746a2.059,2.059,0,0,0,2.982,0,2.059,2.059,0,0,0,0-2.982Z" transform="translate(-65.11 -65.11)"/><path class="a" d="M81.385,269.839l-.746.746a2.059,2.059,0,0,0,0,2.982,2.059,2.059,0,0,0,2.982,0l.746-.746a2.109,2.109,0,0,0-2.982-2.982Z" transform="translate(-65.11 -219.096)"/><path class="a" d="M270.585,80.639l-.746.746a2.059,2.059,0,0,0,0,2.982,2.059,2.059,0,0,0,2.982,0l.746-.746a2.109,2.109,0,1,0-2.982-2.982Z" transform="translate(-219.096 -65.11)"/><path class="a" d="M178.854,114.411V101.427a1.427,1.427,0,0,0-2.854,0v13.555a1.409,1.409,0,0,0,.428,1L192.052,131.6a1.379,1.379,0,0,0,2,0,1.379,1.379,0,0,0,0-2Z" transform="translate(-143.13 -78.886)"/><path class="a" d="M35,0A35,35,0,1,0,70,35,35,35,0,0,0,35,0Zm0,66.957A31.957,31.957,0,1,1,66.957,35,31.953,31.953,0,0,1,35,66.957Z"/></svg>