<svg xmlns="http://www.w3.org/2000/svg" width="71.427" height="70" viewBox="0 0 71.427 70"><defs><style>.a{fill:#fda92d;}</style></defs><g transform="translate(50.947 36.036)"><path class="a" d="M389.289,270.613a1.455,1.455,0,0,0-1.455,1.455,1.848,1.848,0,0,1-3.7,0,1.455,1.455,0,1,0-2.91,0,4.758,4.758,0,0,0,9.516,0A1.455,1.455,0,0,0,389.289,270.613Z" transform="translate(-381.228 -270.613)"/></g><g transform="translate(0 0)"><path class="a" d="M68.7,42.323l-2.926-.937a1.224,1.224,0,0,1-.79-.8,18.863,18.863,0,0,0-2.766-5.471,20.075,20.075,0,0,0-1.848-2.18,25.784,25.784,0,0,0,.636-5.888c-.044-2.649-.573-4.2-1.618-4.749-.563-.3-2.276-1.192-11.549,3.053a3.374,3.374,0,0,0-.615.366c-.625-.168-1.264-.323-1.907-.463l-.235-.048a14.161,14.161,0,0,0,1.273-5.265,1.04,1.04,0,0,0-2.077-.093,12.095,12.095,0,0,1-7.913,10.814,30.145,30.145,0,0,0-8.367,0,12.1,12.1,0,1,1,15-16.8,1.04,1.04,0,0,0,1.857-.935A14.189,14.189,0,1,0,24.653,31.33h0q-.97.252-1.922.569a1.04,1.04,0,0,0,.659,1.972,27.9,27.9,0,0,1,17.582,0,1.04,1.04,0,0,0,.659-1.972q-.952-.318-1.922-.569h0a14.174,14.174,0,0,0,4.315-4.219c.287.056.571.114.851.175q.56.122,1.113.259c-.012.045-.023.09-.033.136a12.4,12.4,0,0,0,.1,6.324,7.526,7.526,0,0,0,2.757,3.875A8.745,8.745,0,0,0,53.928,39.5a6.859,6.859,0,0,0,3.316-.767,6.33,6.33,0,0,0,2.444-3.47q.449.524.851,1.074A16.784,16.784,0,0,1,63,41.21a3.306,3.306,0,0,0,2.139,2.156l2.926.937a1.841,1.841,0,0,1,1.283,1.759v4.851a1.841,1.841,0,0,1-1.283,1.759l-4.714,1.51a3.212,3.212,0,0,0-1.8,1.46A20.719,20.719,0,0,1,52.9,63.514a1.629,1.629,0,0,0-.855,1.148l-1.51,7.994a.467.467,0,0,1-.459.38H45.168a.467.467,0,0,1-.459-.38l-.836-4.418a1.633,1.633,0,0,0-1.857-1.314,43.453,43.453,0,0,1-6.476.482,41.443,41.443,0,0,1-4.764-.269,1.647,1.647,0,0,0-1.8,1.321l-.795,4.2a.467.467,0,0,1-.459.38H22.812a.468.468,0,0,1-.459-.383L20.9,65.1a1.632,1.632,0,0,0-.839-1.135C13.427,60.427,9.922,54.511,9.922,46.86A19.983,19.983,0,0,1,12.435,36.7a18.136,18.136,0,0,1,6.756-6.6,1.04,1.04,0,0,0-1.041-1.8A19.786,19.786,0,0,0,8.11,43.085h0l-.3-.028a5.176,5.176,0,0,0-.381-2.074,4.258,4.258,0,0,0-3.156-2.757,2.873,2.873,0,0,0-2.705,1.2,2.738,2.738,0,0,0-.52,2.987c.524,1.079,1.869,1.842,4.1,2.322q-.092.138-.2.277a5.1,5.1,0,0,1-3.884,2.055A1.091,1.091,0,0,0,0,48.158v.005a1.089,1.089,0,0,0,1.043,1.086q.112.005.234.005c1.277,0,3.327-.471,5.3-2.941a5.928,5.928,0,0,0,.759-1.226q.294.033.565.058h0c-.035.563-.055,1.135-.055,1.716A21.422,21.422,0,0,0,10.91,58.332,21.016,21.016,0,0,0,18.9,65.7l1.413,7.34a2.548,2.548,0,0,0,2.5,2.073h4.909a2.548,2.548,0,0,0,2.5-2.073l.718-3.8a43.809,43.809,0,0,0,4.6.238,45.667,45.667,0,0,0,6.369-.444l.757,4a2.548,2.548,0,0,0,2.5,2.072h4.909a2.548,2.548,0,0,0,2.5-2.073l1.47-7.783a22.664,22.664,0,0,0,9.306-8.576,1.136,1.136,0,0,1,.632-.521l4.714-1.51a3.914,3.914,0,0,0,2.728-3.739V46.062A3.913,3.913,0,0,0,68.7,42.323ZM58.771,29.969c-.4,3.422-1.473,6.348-2.552,6.959a6.361,6.361,0,0,1-6.18-.726c-2.127-1.556-2.835-4.354-2.048-8.092h0a1.254,1.254,0,0,1,.713-.868c5.2-2.382,8.2-3.161,9.319-3.161a1.087,1.087,0,0,1,.377.05C58.736,24.488,59.175,26.516,58.771,29.969ZM2.919,41.51c-.108-.222.146-.612.307-.825a.829.829,0,0,1,.668-.406.78.78,0,0,1,.1.007,2.266,2.266,0,0,1,1.5,1.472,3.156,3.156,0,0,1,.217.98C4.279,42.441,3.161,42.011,2.919,41.51Z" transform="translate(0 -5.115)"/></g><g transform="translate(27.825 6.344)"><path class="a" d="M208.131,59.789V55.77c1.386.1,1.9.732,2.376.732.594,0,.871-.752.871-1.128,0-.97-1.9-1.386-3.247-1.425v-.535c0-.238-.3-.455-.594-.455a.522.522,0,0,0-.574.455v.574c-1.881.2-3.761,1.188-3.761,3.682,0,2.534,1.98,3.247,3.761,3.88V66.2c-2.019-.158-2.554-1.544-3.207-1.544-.495,0-.911.653-.911,1.129,0,.97,1.663,2.3,4.118,2.336h0v.614a.522.522,0,0,0,.574.455c.3,0,.594-.218.594-.455v-.673a3.835,3.835,0,0,0,3.6-4.078C211.734,61.294,209.853,60.422,208.131,59.789Zm-1.049-.376c-1.049-.4-1.9-.812-1.9-1.94,0-1.029.792-1.524,1.9-1.663Zm.93,6.751V61.986a2.315,2.315,0,0,1,1.742,2.217A1.883,1.883,0,0,1,208.012,66.163Z" transform="translate(-202.845 -52.959)"/></g></svg>